<?xml version="1.0" encoding="UTF-8" standalone="no"?>
<!DOCTYPE svg PUBLIC "-//W3C//DTD SVG 1.1//EN"
 "http://www.w3.org/Graphics/SVG/1.1/DTD/svg11.dtd">
<!-- Generated by graphviz version 2.43.0 (0)
 -->
<!-- Title: %3 Pages: 1 -->
<svg width="3428pt" height="545pt"
 viewBox="0.00 0.00 3427.75 545.00" xmlns="http://www.w3.org/2000/svg" xmlns:xlink="http://www.w3.org/1999/xlink">
<g id="graph0" class="graph" transform="scale(1 1) rotate(0) translate(4 541)">
<title>%3</title>
<polygon fill="#ffffff" stroke="transparent" points="-4,4 -4,-541 3423.75,-541 3423.75,4 -4,4"/>
<!-- PSU -->
<g id="node1" class="node">
<title>PSU</title>
<polygon fill="#ffffff" stroke="black" points="261,-454.5 0,-454.5 0,-362.5 261,-362.5 261,-454.5"/>
<polygon fill="none" stroke="black" points="0.5,-431.5 0.5,-454.5 261.5,-454.5 261.5,-431.5 0.5,-431.5"/>
<text text-anchor="start" x="117" y="-439.3" font-family="arial" font-size="14.00">PSU</text>
<polygon fill="none" stroke="black" points="0.5,-408.5 0.5,-431.5 86.5,-431.5 86.5,-408.5 0.5,-408.5"/>
<text text-anchor="start" x="4.5" y="-416.3" font-family="arial" font-size="14.00">Labornetzteil</text>
<polygon fill="none" stroke="black" points="86.5,-408.5 86.5,-431.5 222.5,-431.5 222.5,-408.5 86.5,-408.5"/>
<text text-anchor="start" x="90.5" y="-416.3" font-family="arial" font-size="14.00">12 V (strombegrenzt)</text>
<polygon fill="none" stroke="black" points="222.5,-408.5 222.5,-431.5 261.5,-431.5 261.5,-408.5 222.5,-408.5"/>
<text text-anchor="start" x="226.5" y="-416.3" font-family="arial" font-size="14.00">2&#45;pin</text>
<polygon fill="none" stroke="black" points="0.5,-385.5 0.5,-408.5 143.5,-408.5 143.5,-385.5 0.5,-385.5"/>
<text text-anchor="start" x="55.5" y="-393.3" font-family="arial" font-size="14.00">+12V</text>
<polygon fill="none" stroke="black" points="143.5,-385.5 143.5,-408.5 261.5,-408.5 261.5,-385.5 143.5,-385.5"/>
<text text-anchor="start" x="198.5" y="-393.3" font-family="arial" font-size="14.00">1</text>
<polygon fill="none" stroke="black" points="0.5,-362.5 0.5,-385.5 143.5,-385.5 143.5,-362.5 0.5,-362.5"/>
<text text-anchor="start" x="56.5" y="-370.3" font-family="arial" font-size="14.00">GND</text>
<polygon fill="none" stroke="black" points="143.5,-362.5 143.5,-385.5 261.5,-385.5 261.5,-362.5 143.5,-362.5"/>
<text text-anchor="start" x="198.5" y="-370.3" font-family="arial" font-size="14.00">2</text>
</g>
<!-- W_PWR -->
<g id="node5" class="node">
<title>W_PWR</title>
<polygon fill="#ffffff" stroke="black" points="644,-484.5 405,-484.5 405,-350.5 644,-350.5 644,-484.5"/>
<polygon fill="none" stroke="black" points="405.5,-461.5 405.5,-484.5 644.5,-484.5 644.5,-461.5 405.5,-461.5"/>
<text text-anchor="start" x="498" y="-469.3" font-family="arial" font-size="14.00">W_PWR</text>
<polygon fill="none" stroke="black" points="405.5,-438.5 405.5,-461.5 506.5,-461.5 506.5,-438.5 405.5,-438.5"/>
<text text-anchor="start" x="448.5" y="-446.3" font-family="arial" font-size="14.00">2x</text>
<polygon fill="none" stroke="black" points="506.5,-438.5 506.5,-461.5 644.5,-461.5 644.5,-438.5 506.5,-438.5"/>
<text text-anchor="start" x="549.5" y="-446.3" font-family="arial" font-size="14.00">0.5 mm²</text>
<text text-anchor="start" x="443.5" y="-425.3" font-family="arial" font-size="14.00"> </text>
<text text-anchor="start" x="407.5" y="-406.3" font-family="arial" font-size="14.00">PSU:1:+12V</text>
<text text-anchor="start" x="487.5" y="-406.3" font-family="arial" font-size="14.00"> &#160;&#160;&#160;&#160;1:RD &#160;&#160;&#160;</text>
<text text-anchor="start" x="561.5" y="-406.3" font-family="arial" font-size="14.00">L298N:1:VM</text>
<polygon fill="#000000" stroke="transparent" points="405.5,-398.5 405.5,-400.5 644.5,-400.5 644.5,-398.5 405.5,-398.5"/>
<polygon fill="#ff0000" stroke="transparent" points="405.5,-396.5 405.5,-398.5 644.5,-398.5 644.5,-396.5 405.5,-396.5"/>
<polygon fill="#000000" stroke="transparent" points="405.5,-394.5 405.5,-396.5 644.5,-396.5 644.5,-394.5 405.5,-394.5"/>
<text text-anchor="start" x="408.5" y="-381.3" font-family="arial" font-size="14.00">PSU:2:GND</text>
<text text-anchor="start" x="488" y="-381.3" font-family="arial" font-size="14.00"> &#160;&#160;&#160;&#160;2:BK &#160;&#160;&#160;</text>
<text text-anchor="start" x="556.5" y="-381.3" font-family="arial" font-size="14.00">L298N:2:GND</text>
<polygon fill="#000000" stroke="transparent" points="405.5,-373.5 405.5,-375.5 644.5,-375.5 644.5,-373.5 405.5,-373.5"/>
<polygon fill="#000000" stroke="transparent" points="405.5,-371.5 405.5,-373.5 644.5,-373.5 644.5,-371.5 405.5,-371.5"/>
<polygon fill="#000000" stroke="transparent" points="405.5,-369.5 405.5,-371.5 644.5,-371.5 644.5,-369.5 405.5,-369.5"/>
<text text-anchor="start" x="443.5" y="-356.3" font-family="arial" font-size="14.00"> </text>
</g>
<!-- PSU&#45;&#45;W_PWR -->
<g id="edge1" class="edge">
<title>PSU:e&#45;&#45;W_PWR:w</title>
<path fill="none" stroke="#000000" stroke-width="2" d="M261,-394.5C325.13,-394.5 341.12,-395.5 405,-395.5"/>
<path fill="none" stroke="#ff0000" stroke-width="2" d="M261,-396.5C325,-396.5 341,-397.5 405,-397.5"/>
<path fill="none" stroke="#000000" stroke-width="2" d="M261,-398.5C324.88,-398.5 340.87,-399.5 405,-399.5"/>
</g>
<!-- PSU&#45;&#45;W_PWR -->
<g id="edge3" class="edge">
<title>PSU:e&#45;&#45;W_PWR:w</title>
<path fill="none" stroke="#000000" stroke-width="2" d="M261,-371.5C324.88,-371.5 340.87,-370.5 405,-370.5"/>
<path fill="none" stroke="#000000" stroke-width="2" d="M261,-373.5C325,-373.5 341,-372.5 405,-372.5"/>
<path fill="none" stroke="#000000" stroke-width="2" d="M261,-375.5C325.13,-375.5 341.12,-374.5 405,-374.5"/>
</g>
<!-- L298N -->
<g id="node2" class="node">
<title>L298N</title>
<polygon fill="#ffffff" stroke="black" points="1177,-453.5 788,-453.5 788,-223.5 1177,-223.5 1177,-453.5"/>
<polygon fill="none" stroke="black" points="788.5,-430.5 788.5,-453.5 1177.5,-453.5 1177.5,-430.5 788.5,-430.5"/>
<text text-anchor="start" x="963" y="-438.3" font-family="arial" font-size="14.00">L298N</text>
<polygon fill="none" stroke="black" points="788.5,-407.5 788.5,-430.5 1021.5,-430.5 1021.5,-407.5 788.5,-407.5"/>
<text text-anchor="start" x="851" y="-415.3" font-family="arial" font-size="14.00">L298N H&#45;Bruecke</text>
<polygon fill="none" stroke="black" points="1021.5,-407.5 1021.5,-430.5 1177.5,-430.5 1177.5,-407.5 1021.5,-407.5"/>
<text text-anchor="start" x="1084" y="-415.3" font-family="arial" font-size="14.00">7&#45;pin</text>
<polygon fill="none" stroke="black" points="788.5,-384.5 788.5,-407.5 908.5,-407.5 908.5,-384.5 788.5,-384.5"/>
<text text-anchor="start" x="844.5" y="-392.3" font-family="arial" font-size="14.00">1</text>
<polygon fill="none" stroke="black" points="908.5,-384.5 908.5,-407.5 1057.5,-407.5 1057.5,-384.5 908.5,-384.5"/>
<text text-anchor="start" x="972" y="-392.3" font-family="arial" font-size="14.00">VM</text>
<polygon fill="none" stroke="black" points="1057.5,-384.5 1057.5,-407.5 1177.5,-407.5 1177.5,-384.5 1057.5,-384.5"/>
<text text-anchor="start" x="1113.5" y="-392.3" font-family="arial" font-size="14.00">1</text>
<polygon fill="none" stroke="black" points="788.5,-361.5 788.5,-384.5 908.5,-384.5 908.5,-361.5 788.5,-361.5"/>
<text text-anchor="start" x="844.5" y="-369.3" font-family="arial" font-size="14.00">2</text>
<polygon fill="none" stroke="black" points="908.5,-361.5 908.5,-384.5 1057.5,-384.5 1057.5,-361.5 908.5,-361.5"/>
<text text-anchor="start" x="967.5" y="-369.3" font-family="arial" font-size="14.00">GND</text>
<polygon fill="none" stroke="black" points="1057.5,-361.5 1057.5,-384.5 1177.5,-384.5 1177.5,-361.5 1057.5,-361.5"/>
<text text-anchor="start" x="1113.5" y="-369.3" font-family="arial" font-size="14.00">2</text>
<polygon fill="none" stroke="black" points="788.5,-338.5 788.5,-361.5 908.5,-361.5 908.5,-338.5 788.5,-338.5"/>
<text text-anchor="start" x="844.5" y="-346.3" font-family="arial" font-size="14.00">3</text>
<polygon fill="none" stroke="black" points="908.5,-338.5 908.5,-361.5 1057.5,-361.5 1057.5,-338.5 908.5,-338.5"/>
<text text-anchor="start" x="969" y="-346.3" font-family="arial" font-size="14.00">ENA</text>
<polygon fill="none" stroke="black" points="1057.5,-338.5 1057.5,-361.5 1177.5,-361.5 1177.5,-338.5 1057.5,-338.5"/>
<text text-anchor="start" x="1113.5" y="-346.3" font-family="arial" font-size="14.00">3</text>
<polygon fill="none" stroke="black" points="788.5,-315.5 788.5,-338.5 908.5,-338.5 908.5,-315.5 788.5,-315.5"/>
<text text-anchor="start" x="844.5" y="-323.3" font-family="arial" font-size="14.00">4</text>
<polygon fill="none" stroke="black" points="908.5,-315.5 908.5,-338.5 1057.5,-338.5 1057.5,-315.5 908.5,-315.5"/>
<text text-anchor="start" x="972" y="-323.3" font-family="arial" font-size="14.00">IN1</text>
<polygon fill="none" stroke="black" points="1057.5,-315.5 1057.5,-338.5 1177.5,-338.5 1177.5,-315.5 1057.5,-315.5"/>
<text text-anchor="start" x="1113.5" y="-323.3" font-family="arial" font-size="14.00">4</text>
<polygon fill="none" stroke="black" points="788.5,-292.5 788.5,-315.5 908.5,-315.5 908.5,-292.5 788.5,-292.5"/>
<text text-anchor="start" x="844.5" y="-300.3" font-family="arial" font-size="14.00">5</text>
<polygon fill="none" stroke="black" points="908.5,-292.5 908.5,-315.5 1057.5,-315.5 1057.5,-292.5 908.5,-292.5"/>
<text text-anchor="start" x="972" y="-300.3" font-family="arial" font-size="14.00">IN2</text>
<polygon fill="none" stroke="black" points="1057.5,-292.5 1057.5,-315.5 1177.5,-315.5 1177.5,-292.5 1057.5,-292.5"/>
<text text-anchor="start" x="1113.5" y="-300.3" font-family="arial" font-size="14.00">5</text>
<polygon fill="none" stroke="black" points="788.5,-269.5 788.5,-292.5 908.5,-292.5 908.5,-269.5 788.5,-269.5"/>
<text text-anchor="start" x="844.5" y="-277.3" font-family="arial" font-size="14.00">6</text>
<polygon fill="none" stroke="black" points="908.5,-269.5 908.5,-292.5 1057.5,-292.5 1057.5,-269.5 908.5,-269.5"/>
<text text-anchor="start" x="964.5" y="-277.3" font-family="arial" font-size="14.00">OUT1</text>
<polygon fill="none" stroke="black" points="1057.5,-269.5 1057.5,-292.5 1177.5,-292.5 1177.5,-269.5 1057.5,-269.5"/>
<text text-anchor="start" x="1113.5" y="-277.3" font-family="arial" font-size="14.00">6</text>
<polygon fill="none" stroke="black" points="788.5,-246.5 788.5,-269.5 908.5,-269.5 908.5,-246.5 788.5,-246.5"/>
<text text-anchor="start" x="844.5" y="-254.3" font-family="arial" font-size="14.00">7</text>
<polygon fill="none" stroke="black" points="908.5,-246.5 908.5,-269.5 1057.5,-269.5 1057.5,-246.5 908.5,-246.5"/>
<text text-anchor="start" x="964.5" y="-254.3" font-family="arial" font-size="14.00">OUT2</text>
<polygon fill="none" stroke="black" points="1057.5,-246.5 1057.5,-269.5 1177.5,-269.5 1177.5,-246.5 1057.5,-246.5"/>
<text text-anchor="start" x="1113.5" y="-254.3" font-family="arial" font-size="14.00">7</text>
<polygon fill="none" stroke="black" points="788.5,-223.5 788.5,-246.5 1177.5,-246.5 1177.5,-223.5 788.5,-223.5"/>
<text text-anchor="start" x="792.5" y="-231.3" font-family="arial" font-size="14.00">ENA&#45;Jumper entfernt (PWM aktiv); Motor sieht ~8V (Drop ~4V)</text>
</g>
<!-- W_GND -->
<g id="node6" class="node">
<title>W_GND</title>
<polygon fill="#ffffff" stroke="black" points="2055.5,-537 1805.5,-537 1805.5,-428 2055.5,-428 2055.5,-537"/>
<polygon fill="none" stroke="black" points="1805.5,-513.5 1805.5,-536.5 2055.5,-536.5 2055.5,-513.5 1805.5,-513.5"/>
<text text-anchor="start" x="1904.5" y="-521.3" font-family="arial" font-size="14.00">W_GND</text>
<polygon fill="none" stroke="black" points="1805.5,-490.5 1805.5,-513.5 2055.5,-513.5 2055.5,-490.5 1805.5,-490.5"/>
<text text-anchor="start" x="1923" y="-498.3" font-family="arial" font-size="14.00">1x</text>
<text text-anchor="start" x="1848.5" y="-477.3" font-family="arial" font-size="14.00"> </text>
<text text-anchor="start" x="1807.5" y="-458.3" font-family="arial" font-size="14.00">L298N:2:GND</text>
<text text-anchor="start" x="1897.5" y="-458.3" font-family="arial" font-size="14.00"> &#160;&#160;&#160;&#160;1:BK &#160;&#160;&#160;</text>
<text text-anchor="start" x="1965.5" y="-458.3" font-family="arial" font-size="14.00">ESP32:2:GND</text>
<polygon fill="#000000" stroke="transparent" points="1805.5,-450.5 1805.5,-452.5 2055.5,-452.5 2055.5,-450.5 1805.5,-450.5"/>
<polygon fill="#000000" stroke="transparent" points="1805.5,-448.5 1805.5,-450.5 2055.5,-450.5 2055.5,-448.5 1805.5,-448.5"/>
<polygon fill="#000000" stroke="transparent" points="1805.5,-446.5 1805.5,-448.5 2055.5,-448.5 2055.5,-446.5 1805.5,-446.5"/>
<text text-anchor="start" x="1848.5" y="-433.3" font-family="arial" font-size="14.00"> </text>
</g>
<!-- L298N&#45;&#45;W_GND -->
<g id="edge5" class="edge">
<title>L298N:e&#45;&#45;W_GND:w</title>
<path fill="none" stroke="#000000" stroke-width="2" d="M1177,-371.5C1244.75,-372.59 1257.69,-397.83 1321.33,-407.53 1533.91,-442.66 1589.05,-447.51 1804.5,-447.5"/>
<path fill="none" stroke="#000000" stroke-width="2" d="M1177,-373.5C1242.97,-373.5 1255.91,-398.74 1321,-409.5 1533.74,-444.65 1588.88,-449.5 1804.5,-449.5"/>
<path fill="none" stroke="#000000" stroke-width="2" d="M1177,-375.5C1241.19,-374.41 1254.13,-399.66 1320.67,-411.47 1533.56,-446.65 1588.7,-451.49 1804.5,-451.5"/>
</g>
<!-- W_MOTOR -->
<g id="node8" class="node">
<title>W_MOTOR</title>
<polygon fill="#ffffff" stroke="black" points="1582,-253.5 1321,-253.5 1321,-119.5 1582,-119.5 1582,-253.5"/>
<polygon fill="none" stroke="black" points="1321.5,-230.5 1321.5,-253.5 1582.5,-253.5 1582.5,-230.5 1321.5,-230.5"/>
<text text-anchor="start" x="1415" y="-238.3" font-family="arial" font-size="14.00">W_MOTOR</text>
<polygon fill="none" stroke="black" points="1321.5,-207.5 1321.5,-230.5 1433.5,-230.5 1433.5,-207.5 1321.5,-207.5"/>
<text text-anchor="start" x="1370" y="-215.3" font-family="arial" font-size="14.00">2x</text>
<polygon fill="none" stroke="black" points="1433.5,-207.5 1433.5,-230.5 1582.5,-230.5 1582.5,-207.5 1433.5,-207.5"/>
<text text-anchor="start" x="1482" y="-215.3" font-family="arial" font-size="14.00">0.5 mm²</text>
<text text-anchor="start" x="1367.5" y="-194.3" font-family="arial" font-size="14.00"> </text>
<text text-anchor="start" x="1323.5" y="-175.3" font-family="arial" font-size="14.00">L298N:6:OUT1</text>
<text text-anchor="start" x="1421.5" y="-175.3" font-family="arial" font-size="14.00"> &#160;&#160;&#160;&#160;1:RD &#160;&#160;&#160;</text>
<text text-anchor="start" x="1492.5" y="-175.3" font-family="arial" font-size="14.00">MOTOR:1:M+</text>
<polygon fill="#000000" stroke="transparent" points="1321.5,-167.5 1321.5,-169.5 1582.5,-169.5 1582.5,-167.5 1321.5,-167.5"/>
<polygon fill="#ff0000" stroke="transparent" points="1321.5,-165.5 1321.5,-167.5 1582.5,-167.5 1582.5,-165.5 1321.5,-165.5"/>
<polygon fill="#000000" stroke="transparent" points="1321.5,-163.5 1321.5,-165.5 1582.5,-165.5 1582.5,-163.5 1321.5,-163.5"/>
<text text-anchor="start" x="1323.5" y="-150.3" font-family="arial" font-size="14.00">L298N:7:OUT2</text>
<text text-anchor="start" x="1419.5" y="-150.3" font-family="arial" font-size="14.00"> &#160;&#160;&#160;&#160;2:WH &#160;&#160;&#160;</text>
<text text-anchor="start" x="1494" y="-150.3" font-family="arial" font-size="14.00">MOTOR:2:M&#45;</text>
<polygon fill="#000000" stroke="transparent" points="1321.5,-142.5 1321.5,-144.5 1582.5,-144.5 1582.5,-142.5 1321.5,-142.5"/>
<polygon fill="#ffffff" stroke="transparent" points="1321.5,-140.5 1321.5,-142.5 1582.5,-142.5 1582.5,-140.5 1321.5,-140.5"/>
<polygon fill="#000000" stroke="transparent" points="1321.5,-138.5 1321.5,-140.5 1582.5,-140.5 1582.5,-138.5 1321.5,-138.5"/>
<text text-anchor="start" x="1367.5" y="-125.3" font-family="arial" font-size="14.00"> </text>
</g>
<!-- L298N&#45;&#45;W_MOTOR -->
<g id="edge13" class="edge">
<title>L298N:e&#45;&#45;W_MOTOR:w</title>
<path fill="none" stroke="#000000" stroke-width="2" d="M1177,-278.5C1256.66,-280.83 1237.4,-166.83 1321,-164.5"/>
<path fill="none" stroke="#ff0000" stroke-width="2" d="M1177,-280.5C1258.63,-280.5 1239.37,-166.5 1321,-166.5"/>
<path fill="none" stroke="#000000" stroke-width="2" d="M1177,-282.5C1260.6,-280.17 1241.34,-166.17 1321,-168.5"/>
</g>
<!-- L298N&#45;&#45;W_MOTOR -->
<g id="edge15" class="edge">
<title>L298N:e&#45;&#45;W_MOTOR:w</title>
<path fill="none" stroke="#000000" stroke-width="2" d="M1177,-255.5C1257.21,-257.85 1236.85,-141.85 1321,-139.5"/>
<path fill="none" stroke="#ffffff" stroke-width="2" d="M1177,-257.5C1259.18,-257.5 1238.82,-141.5 1321,-141.5"/>
<path fill="none" stroke="#000000" stroke-width="2" d="M1177,-259.5C1261.15,-257.15 1240.79,-141.15 1321,-143.5"/>
</g>
<!-- ESP32 -->
<g id="node3" class="node">
<title>ESP32</title>
<polygon fill="#ffffff" stroke="black" points="2947,-253 2732,-253 2732,0 2947,0 2947,-253"/>
<polygon fill="none" stroke="black" points="2732.5,-229.5 2732.5,-252.5 2947.5,-252.5 2947.5,-229.5 2732.5,-229.5"/>
<text text-anchor="start" x="2818.5" y="-237.3" font-family="arial" font-size="14.00">ESP32</text>
<polygon fill="none" stroke="black" points="2732.5,-206.5 2732.5,-229.5 2908.5,-229.5 2908.5,-206.5 2732.5,-206.5"/>
<text text-anchor="start" x="2736.5" y="-214.3" font-family="arial" font-size="14.00">ESP32&#45;WROOM&#45;32 DevKit</text>
<polygon fill="none" stroke="black" points="2908.5,-206.5 2908.5,-229.5 2947.5,-229.5 2947.5,-206.5 2908.5,-206.5"/>
<text text-anchor="start" x="2912.5" y="-214.3" font-family="arial" font-size="14.00">8&#45;pin</text>
<polygon fill="none" stroke="black" points="2732.5,-183.5 2732.5,-206.5 2790.5,-206.5 2790.5,-183.5 2732.5,-183.5"/>
<text text-anchor="start" x="2757.5" y="-191.3" font-family="arial" font-size="14.00">1</text>
<polygon fill="none" stroke="black" points="2790.5,-183.5 2790.5,-206.5 2890.5,-206.5 2890.5,-183.5 2790.5,-183.5"/>
<text text-anchor="start" x="2828" y="-191.3" font-family="arial" font-size="14.00">3V3</text>
<polygon fill="none" stroke="black" points="2890.5,-183.5 2890.5,-206.5 2947.5,-206.5 2947.5,-183.5 2890.5,-183.5"/>
<text text-anchor="start" x="2915" y="-191.3" font-family="arial" font-size="14.00">1</text>
<polygon fill="none" stroke="black" points="2732.5,-160.5 2732.5,-183.5 2790.5,-183.5 2790.5,-160.5 2732.5,-160.5"/>
<text text-anchor="start" x="2757.5" y="-168.3" font-family="arial" font-size="14.00">2</text>
<polygon fill="none" stroke="black" points="2790.5,-160.5 2790.5,-183.5 2890.5,-183.5 2890.5,-160.5 2790.5,-160.5"/>
<text text-anchor="start" x="2825" y="-168.3" font-family="arial" font-size="14.00">GND</text>
<polygon fill="none" stroke="black" points="2890.5,-160.5 2890.5,-183.5 2947.5,-183.5 2947.5,-160.5 2890.5,-160.5"/>
<text text-anchor="start" x="2915" y="-168.3" font-family="arial" font-size="14.00">2</text>
<polygon fill="none" stroke="black" points="2732.5,-137.5 2732.5,-160.5 2790.5,-160.5 2790.5,-137.5 2732.5,-137.5"/>
<text text-anchor="start" x="2757.5" y="-145.3" font-family="arial" font-size="14.00">3</text>
<polygon fill="none" stroke="black" points="2790.5,-137.5 2790.5,-160.5 2890.5,-160.5 2890.5,-137.5 2790.5,-137.5"/>
<text text-anchor="start" x="2821" y="-145.3" font-family="arial" font-size="14.00">GND2</text>
<polygon fill="none" stroke="black" points="2890.5,-137.5 2890.5,-160.5 2947.5,-160.5 2947.5,-137.5 2890.5,-137.5"/>
<text text-anchor="start" x="2915" y="-145.3" font-family="arial" font-size="14.00">3</text>
<polygon fill="none" stroke="black" points="2732.5,-114.5 2732.5,-137.5 2790.5,-137.5 2790.5,-114.5 2732.5,-114.5"/>
<text text-anchor="start" x="2757.5" y="-122.3" font-family="arial" font-size="14.00">4</text>
<polygon fill="none" stroke="black" points="2790.5,-114.5 2790.5,-137.5 2890.5,-137.5 2890.5,-114.5 2790.5,-114.5"/>
<text text-anchor="start" x="2815" y="-122.3" font-family="arial" font-size="14.00">GPIO14</text>
<polygon fill="none" stroke="black" points="2890.5,-114.5 2890.5,-137.5 2947.5,-137.5 2947.5,-114.5 2890.5,-114.5"/>
<text text-anchor="start" x="2915" y="-122.3" font-family="arial" font-size="14.00">4</text>
<polygon fill="none" stroke="black" points="2732.5,-91.5 2732.5,-114.5 2790.5,-114.5 2790.5,-91.5 2732.5,-91.5"/>
<text text-anchor="start" x="2757.5" y="-99.3" font-family="arial" font-size="14.00">5</text>
<polygon fill="none" stroke="black" points="2790.5,-91.5 2790.5,-114.5 2890.5,-114.5 2890.5,-91.5 2790.5,-91.5"/>
<text text-anchor="start" x="2815" y="-99.3" font-family="arial" font-size="14.00">GPIO26</text>
<polygon fill="none" stroke="black" points="2890.5,-91.5 2890.5,-114.5 2947.5,-114.5 2947.5,-91.5 2890.5,-91.5"/>
<text text-anchor="start" x="2915" y="-99.3" font-family="arial" font-size="14.00">5</text>
<polygon fill="none" stroke="black" points="2732.5,-68.5 2732.5,-91.5 2790.5,-91.5 2790.5,-68.5 2732.5,-68.5"/>
<text text-anchor="start" x="2757.5" y="-76.3" font-family="arial" font-size="14.00">6</text>
<polygon fill="none" stroke="black" points="2790.5,-68.5 2790.5,-91.5 2890.5,-91.5 2890.5,-68.5 2790.5,-68.5"/>
<text text-anchor="start" x="2815" y="-76.3" font-family="arial" font-size="14.00">GPIO27</text>
<polygon fill="none" stroke="black" points="2890.5,-68.5 2890.5,-91.5 2947.5,-91.5 2947.5,-68.5 2890.5,-68.5"/>
<text text-anchor="start" x="2915" y="-76.3" font-family="arial" font-size="14.00">6</text>
<polygon fill="none" stroke="black" points="2732.5,-45.5 2732.5,-68.5 2790.5,-68.5 2790.5,-45.5 2732.5,-45.5"/>
<text text-anchor="start" x="2757.5" y="-53.3" font-family="arial" font-size="14.00">7</text>
<polygon fill="none" stroke="black" points="2790.5,-45.5 2790.5,-68.5 2890.5,-68.5 2890.5,-45.5 2790.5,-45.5"/>
<text text-anchor="start" x="2815" y="-53.3" font-family="arial" font-size="14.00">GPIO32</text>
<polygon fill="none" stroke="black" points="2890.5,-45.5 2890.5,-68.5 2947.5,-68.5 2947.5,-45.5 2890.5,-45.5"/>
<text text-anchor="start" x="2915" y="-53.3" font-family="arial" font-size="14.00">7</text>
<polygon fill="none" stroke="black" points="2732.5,-22.5 2732.5,-45.5 2790.5,-45.5 2790.5,-22.5 2732.5,-22.5"/>
<text text-anchor="start" x="2757.5" y="-30.3" font-family="arial" font-size="14.00">8</text>
<polygon fill="none" stroke="black" points="2790.5,-22.5 2790.5,-45.5 2890.5,-45.5 2890.5,-22.5 2790.5,-22.5"/>
<text text-anchor="start" x="2815" y="-30.3" font-family="arial" font-size="14.00">GPIO33</text>
<polygon fill="none" stroke="black" points="2890.5,-22.5 2890.5,-45.5 2947.5,-45.5 2947.5,-22.5 2890.5,-22.5"/>
<text text-anchor="start" x="2915" y="-30.3" font-family="arial" font-size="14.00">8</text>
<polygon fill="none" stroke="black" points="2732.5,0.5 2732.5,-22.5 2947.5,-22.5 2947.5,0.5 2732.5,0.5"/>
<text text-anchor="start" x="2754.5" y="-7.3" font-family="arial" font-size="14.00">USB an PC (Power + Serial)</text>
</g>
<!-- W_CTRL -->
<g id="node7" class="node">
<title>W_CTRL</title>
<polygon fill="#ffffff" stroke="black" points="3362,-322 3091,-322 3091,-163 3362,-163 3362,-322"/>
<polygon fill="none" stroke="black" points="3091.5,-298.5 3091.5,-321.5 3362.5,-321.5 3362.5,-298.5 3091.5,-298.5"/>
<text text-anchor="start" x="3198.5" y="-306.3" font-family="arial" font-size="14.00">W_CTRL</text>
<polygon fill="none" stroke="black" points="3091.5,-275.5 3091.5,-298.5 3362.5,-298.5 3362.5,-275.5 3091.5,-275.5"/>
<text text-anchor="start" x="3219.5" y="-283.3" font-family="arial" font-size="14.00">3x</text>
<text text-anchor="start" x="3145.5" y="-262.3" font-family="arial" font-size="14.00"> </text>
<text text-anchor="start" x="3093.5" y="-243.3" font-family="arial" font-size="14.00">ESP32:4:GPIO14</text>
<text text-anchor="start" x="3205.5" y="-243.3" font-family="arial" font-size="14.00"> &#160;&#160;&#160;&#160;1:OG &#160;&#160;&#160;</text>
<text text-anchor="start" x="3277.5" y="-243.3" font-family="arial" font-size="14.00">L298N:3:ENA</text>
<polygon fill="#000000" stroke="transparent" points="3091.5,-235.5 3091.5,-237.5 3362.5,-237.5 3362.5,-235.5 3091.5,-235.5"/>
<polygon fill="#ff8000" stroke="transparent" points="3091.5,-233.5 3091.5,-235.5 3362.5,-235.5 3362.5,-233.5 3091.5,-233.5"/>
<polygon fill="#000000" stroke="transparent" points="3091.5,-231.5 3091.5,-233.5 3362.5,-233.5 3362.5,-231.5 3091.5,-231.5"/>
<text text-anchor="start" x="3093.5" y="-218.3" font-family="arial" font-size="14.00">ESP32:5:GPIO26</text>
<text text-anchor="start" x="3207.5" y="-218.3" font-family="arial" font-size="14.00"> &#160;&#160;&#160;&#160;2:BN &#160;&#160;&#160;</text>
<text text-anchor="start" x="3281" y="-218.3" font-family="arial" font-size="14.00">L298N:4:IN1</text>
<polygon fill="#000000" stroke="transparent" points="3091.5,-210.5 3091.5,-212.5 3362.5,-212.5 3362.5,-210.5 3091.5,-210.5"/>
<polygon fill="#895956" stroke="transparent" points="3091.5,-208.5 3091.5,-210.5 3362.5,-210.5 3362.5,-208.5 3091.5,-208.5"/>
<polygon fill="#000000" stroke="transparent" points="3091.5,-206.5 3091.5,-208.5 3362.5,-208.5 3362.5,-206.5 3091.5,-206.5"/>
<text text-anchor="start" x="3093.5" y="-193.3" font-family="arial" font-size="14.00">ESP32:6:GPIO27</text>
<text text-anchor="start" x="3208" y="-193.3" font-family="arial" font-size="14.00"> &#160;&#160;&#160;&#160;3:VT &#160;&#160;&#160;</text>
<text text-anchor="start" x="3281" y="-193.3" font-family="arial" font-size="14.00">L298N:5:IN2</text>
<polygon fill="#000000" stroke="transparent" points="3091.5,-185.5 3091.5,-187.5 3362.5,-187.5 3362.5,-185.5 3091.5,-185.5"/>
<polygon fill="#8000ff" stroke="transparent" points="3091.5,-183.5 3091.5,-185.5 3362.5,-185.5 3362.5,-183.5 3091.5,-183.5"/>
<polygon fill="#000000" stroke="transparent" points="3091.5,-181.5 3091.5,-183.5 3362.5,-183.5 3362.5,-181.5 3091.5,-181.5"/>
<text text-anchor="start" x="3145.5" y="-168.3" font-family="arial" font-size="14.00"> </text>
</g>
<!-- ESP32&#45;&#45;W_CTRL -->
<g id="edge7" class="edge">
<title>ESP32:e&#45;&#45;W_CTRL:w</title>
<path fill="none" stroke="#000000" stroke-width="2" d="M2947,-123.5C3029.24,-125.8 3012.71,-234.8 3091,-232.5"/>
<path fill="none" stroke="#ff8000" stroke-width="2" d="M2947,-125.5C3027.27,-125.5 3010.73,-234.5 3091,-234.5"/>
<path fill="none" stroke="#000000" stroke-width="2" d="M2947,-127.5C3025.29,-125.2 3008.76,-234.2 3091,-236.5"/>
</g>
<!-- ESP32&#45;&#45;W_CTRL -->
<g id="edge9" class="edge">
<title>ESP32:e&#45;&#45;W_CTRL:w</title>
<path fill="none" stroke="#000000" stroke-width="2" d="M2947,-100.5C3028.71,-102.79 3013.25,-209.79 3091,-207.5"/>
<path fill="none" stroke="#895956" stroke-width="2" d="M2947,-102.5C3026.73,-102.5 3011.27,-209.5 3091,-209.5"/>
<path fill="none" stroke="#000000" stroke-width="2" d="M2947,-104.5C3024.75,-102.21 3009.29,-209.21 3091,-211.5"/>
</g>
<!-- ESP32&#45;&#45;W_CTRL -->
<g id="edge11" class="edge">
<title>ESP32:e&#45;&#45;W_CTRL:w</title>
<path fill="none" stroke="#000000" stroke-width="2" d="M2947,-77.5C3028.19,-79.77 3013.77,-184.77 3091,-182.5"/>
<path fill="none" stroke="#8000ff" stroke-width="2" d="M2947,-79.5C3026.21,-79.5 3011.79,-184.5 3091,-184.5"/>
<path fill="none" stroke="#000000" stroke-width="2" d="M2947,-81.5C3024.23,-79.23 3009.81,-184.23 3091,-186.5"/>
</g>
<!-- MOTOR -->
<g id="node4" class="node">
<title>MOTOR</title>
<polygon fill="#ffffff" stroke="black" points="2135,-222.5 1726,-222.5 1726,-38.5 2135,-38.5 2135,-222.5"/>
<polygon fill="none" stroke="black" points="1726.5,-199.5 1726.5,-222.5 2135.5,-222.5 2135.5,-199.5 1726.5,-199.5"/>
<text text-anchor="start" x="1904.5" y="-207.3" font-family="arial" font-size="14.00">MOTOR</text>
<polygon fill="none" stroke="black" points="1726.5,-176.5 1726.5,-199.5 1843.5,-199.5 1843.5,-176.5 1726.5,-176.5"/>
<text text-anchor="start" x="1730.5" y="-184.3" font-family="arial" font-size="14.00">Hyuduo 25GA371</text>
<polygon fill="none" stroke="black" points="1843.5,-176.5 1843.5,-199.5 2096.5,-199.5 2096.5,-176.5 1843.5,-176.5"/>
<text text-anchor="start" x="1847.5" y="-184.3" font-family="arial" font-size="14.00">Motor + Encoder (11 PPR, x4 = 44 CPR)</text>
<polygon fill="none" stroke="black" points="2096.5,-176.5 2096.5,-199.5 2135.5,-199.5 2135.5,-176.5 2096.5,-176.5"/>
<text text-anchor="start" x="2100.5" y="-184.3" font-family="arial" font-size="14.00">6&#45;pin</text>
<polygon fill="none" stroke="black" points="1726.5,-153.5 1726.5,-176.5 1847.5,-176.5 1847.5,-153.5 1726.5,-153.5"/>
<text text-anchor="start" x="1783" y="-161.3" font-family="arial" font-size="14.00">1</text>
<polygon fill="none" stroke="black" points="1847.5,-153.5 1847.5,-176.5 2015.5,-176.5 2015.5,-153.5 1847.5,-153.5"/>
<text text-anchor="start" x="1921" y="-161.3" font-family="arial" font-size="14.00">M+</text>
<polygon fill="none" stroke="black" points="2015.5,-153.5 2015.5,-176.5 2135.5,-176.5 2135.5,-153.5 2015.5,-153.5"/>
<text text-anchor="start" x="2071.5" y="-161.3" font-family="arial" font-size="14.00">1</text>
<polygon fill="none" stroke="black" points="1726.5,-130.5 1726.5,-153.5 1847.5,-153.5 1847.5,-130.5 1726.5,-130.5"/>
<text text-anchor="start" x="1783" y="-138.3" font-family="arial" font-size="14.00">2</text>
<polygon fill="none" stroke="black" points="1847.5,-130.5 1847.5,-153.5 2015.5,-153.5 2015.5,-130.5 1847.5,-130.5"/>
<text text-anchor="start" x="1923" y="-138.3" font-family="arial" font-size="14.00">M&#45;</text>
<polygon fill="none" stroke="black" points="2015.5,-130.5 2015.5,-153.5 2135.5,-153.5 2135.5,-130.5 2015.5,-130.5"/>
<text text-anchor="start" x="2071.5" y="-138.3" font-family="arial" font-size="14.00">2</text>
<polygon fill="none" stroke="black" points="1726.5,-107.5 1726.5,-130.5 1847.5,-130.5 1847.5,-107.5 1726.5,-107.5"/>
<text text-anchor="start" x="1783" y="-115.3" font-family="arial" font-size="14.00">3</text>
<polygon fill="none" stroke="black" points="1847.5,-107.5 1847.5,-130.5 2015.5,-130.5 2015.5,-107.5 1847.5,-107.5"/>
<text text-anchor="start" x="1905.5" y="-115.3" font-family="arial" font-size="14.00">EncVCC</text>
<polygon fill="none" stroke="black" points="2015.5,-107.5 2015.5,-130.5 2135.5,-130.5 2135.5,-107.5 2015.5,-107.5"/>
<text text-anchor="start" x="2071.5" y="-115.3" font-family="arial" font-size="14.00">3</text>
<polygon fill="none" stroke="black" points="1726.5,-84.5 1726.5,-107.5 1847.5,-107.5 1847.5,-84.5 1726.5,-84.5"/>
<text text-anchor="start" x="1783" y="-92.3" font-family="arial" font-size="14.00">4</text>
<polygon fill="none" stroke="black" points="1847.5,-84.5 1847.5,-107.5 2015.5,-107.5 2015.5,-84.5 1847.5,-84.5"/>
<text text-anchor="start" x="1904" y="-92.3" font-family="arial" font-size="14.00">EncGND</text>
<polygon fill="none" stroke="black" points="2015.5,-84.5 2015.5,-107.5 2135.5,-107.5 2135.5,-84.5 2015.5,-84.5"/>
<text text-anchor="start" x="2071.5" y="-92.3" font-family="arial" font-size="14.00">4</text>
<polygon fill="none" stroke="black" points="1726.5,-61.5 1726.5,-84.5 1847.5,-84.5 1847.5,-61.5 1726.5,-61.5"/>
<text text-anchor="start" x="1783" y="-69.3" font-family="arial" font-size="14.00">5</text>
<polygon fill="none" stroke="black" points="1847.5,-61.5 1847.5,-84.5 2015.5,-84.5 2015.5,-61.5 1847.5,-61.5"/>
<text text-anchor="start" x="1915" y="-69.3" font-family="arial" font-size="14.00">EncA</text>
<polygon fill="none" stroke="black" points="2015.5,-61.5 2015.5,-84.5 2135.5,-84.5 2135.5,-61.5 2015.5,-61.5"/>
<text text-anchor="start" x="2071.5" y="-69.3" font-family="arial" font-size="14.00">5</text>
<polygon fill="none" stroke="black" points="1726.5,-38.5 1726.5,-61.5 1847.5,-61.5 1847.5,-38.5 1726.5,-38.5"/>
<text text-anchor="start" x="1783" y="-46.3" font-family="arial" font-size="14.00">6</text>
<polygon fill="none" stroke="black" points="1847.5,-38.5 1847.5,-61.5 2015.5,-61.5 2015.5,-38.5 1847.5,-38.5"/>
<text text-anchor="start" x="1915" y="-46.3" font-family="arial" font-size="14.00">EncB</text>
<polygon fill="none" stroke="black" points="2015.5,-38.5 2015.5,-61.5 2135.5,-61.5 2135.5,-38.5 2015.5,-38.5"/>
<text text-anchor="start" x="2071.5" y="-46.3" font-family="arial" font-size="14.00">6</text>
</g>
<!-- W_ENC -->
<g id="node9" class="node">
<title>W_ENC</title>
<polygon fill="#ffffff" stroke="black" points="2588,-208.5 2279,-208.5 2279,-24.5 2588,-24.5 2588,-208.5"/>
<polygon fill="none" stroke="black" points="2279.5,-185.5 2279.5,-208.5 2588.5,-208.5 2588.5,-185.5 2279.5,-185.5"/>
<text text-anchor="start" x="2409" y="-193.3" font-family="arial" font-size="14.00">W_ENC</text>
<polygon fill="none" stroke="black" points="2279.5,-162.5 2279.5,-185.5 2588.5,-185.5 2588.5,-162.5 2279.5,-162.5"/>
<text text-anchor="start" x="2426.5" y="-170.3" font-family="arial" font-size="14.00">4x</text>
<text text-anchor="start" x="2340.5" y="-149.3" font-family="arial" font-size="14.00"> </text>
<text text-anchor="start" x="2282.5" y="-130.3" font-family="arial" font-size="14.00">MOTOR:3:EncVCC</text>
<text text-anchor="start" x="2409" y="-130.3" font-family="arial" font-size="14.00"> &#160;&#160;&#160;&#160;1:BU &#160;&#160;&#160;</text>
<text text-anchor="start" x="2491.5" y="-130.3" font-family="arial" font-size="14.00">ESP32:1:3V3</text>
<polygon fill="#000000" stroke="transparent" points="2279.5,-122.5 2279.5,-124.5 2588.5,-124.5 2588.5,-122.5 2279.5,-122.5"/>
<polygon fill="#0066ff" stroke="transparent" points="2279.5,-120.5 2279.5,-122.5 2588.5,-122.5 2588.5,-120.5 2279.5,-120.5"/>
<polygon fill="#000000" stroke="transparent" points="2279.5,-118.5 2279.5,-120.5 2588.5,-120.5 2588.5,-118.5 2279.5,-118.5"/>
<text text-anchor="start" x="2281.5" y="-105.3" font-family="arial" font-size="14.00">MOTOR:4:EncGND</text>
<text text-anchor="start" x="2409" y="-105.3" font-family="arial" font-size="14.00"> &#160;&#160;&#160;&#160;2:BK &#160;&#160;&#160;</text>
<text text-anchor="start" x="2484.5" y="-105.3" font-family="arial" font-size="14.00">ESP32:3:GND2</text>
<polygon fill="#000000" stroke="transparent" points="2279.5,-97.5 2279.5,-99.5 2588.5,-99.5 2588.5,-97.5 2279.5,-97.5"/>
<polygon fill="#000000" stroke="transparent" points="2279.5,-95.5 2279.5,-97.5 2588.5,-97.5 2588.5,-95.5 2279.5,-95.5"/>
<polygon fill="#000000" stroke="transparent" points="2279.5,-93.5 2279.5,-95.5 2588.5,-95.5 2588.5,-93.5 2279.5,-93.5"/>
<text text-anchor="start" x="2292.5" y="-80.3" font-family="arial" font-size="14.00">MOTOR:5:EncA</text>
<text text-anchor="start" x="2407.5" y="-80.3" font-family="arial" font-size="14.00"> &#160;&#160;&#160;&#160;3:GN &#160;&#160;&#160;</text>
<text text-anchor="start" x="2478.5" y="-80.3" font-family="arial" font-size="14.00">ESP32:7:GPIO32</text>
<polygon fill="#000000" stroke="transparent" points="2279.5,-72.5 2279.5,-74.5 2588.5,-74.5 2588.5,-72.5 2279.5,-72.5"/>
<polygon fill="#00ff00" stroke="transparent" points="2279.5,-70.5 2279.5,-72.5 2588.5,-72.5 2588.5,-70.5 2279.5,-70.5"/>
<polygon fill="#000000" stroke="transparent" points="2279.5,-68.5 2279.5,-70.5 2588.5,-70.5 2588.5,-68.5 2279.5,-68.5"/>
<text text-anchor="start" x="2292.5" y="-55.3" font-family="arial" font-size="14.00">MOTOR:6:EncB</text>
<text text-anchor="start" x="2409" y="-55.3" font-family="arial" font-size="14.00"> &#160;&#160;&#160;&#160;4:YE &#160;&#160;&#160;</text>
<text text-anchor="start" x="2478.5" y="-55.3" font-family="arial" font-size="14.00">ESP32:8:GPIO33</text>
<polygon fill="#000000" stroke="transparent" points="2279.5,-47.5 2279.5,-49.5 2588.5,-49.5 2588.5,-47.5 2279.5,-47.5"/>
<polygon fill="#ffff00" stroke="transparent" points="2279.5,-45.5 2279.5,-47.5 2588.5,-47.5 2588.5,-45.5 2279.5,-45.5"/>
<polygon fill="#000000" stroke="transparent" points="2279.5,-43.5 2279.5,-45.5 2588.5,-45.5 2588.5,-43.5 2279.5,-43.5"/>
<text text-anchor="start" x="2340.5" y="-30.3" font-family="arial" font-size="14.00"> </text>
</g>
<!-- MOTOR&#45;&#45;W_ENC -->
<g id="edge17" class="edge">
<title>MOTOR:e&#45;&#45;W_ENC:w</title>
<path fill="none" stroke="#000000" stroke-width="2" d="M2135,-116.5C2199.38,-116.53 2215.36,-119.53 2279,-119.5"/>
<path fill="none" stroke="#0066ff" stroke-width="2" d="M2135,-118.5C2199.01,-118.5 2214.99,-121.5 2279,-121.5"/>
<path fill="none" stroke="#000000" stroke-width="2" d="M2135,-120.5C2198.64,-120.47 2214.62,-123.47 2279,-123.5"/>
</g>
<!-- MOTOR&#45;&#45;W_ENC -->
<g id="edge19" class="edge">
<title>MOTOR:e&#45;&#45;W_ENC:w</title>
<path fill="none" stroke="#000000" stroke-width="2" d="M2135,-93.5C2199.13,-93.5 2215.12,-94.5 2279,-94.5"/>
<path fill="none" stroke="#000000" stroke-width="2" d="M2135,-95.5C2199,-95.5 2215,-96.5 2279,-96.5"/>
<path fill="none" stroke="#000000" stroke-width="2" d="M2135,-97.5C2198.88,-97.5 2214.87,-98.5 2279,-98.5"/>
</g>
<!-- MOTOR&#45;&#45;W_ENC -->
<g id="edge21" class="edge">
<title>MOTOR:e&#45;&#45;W_ENC:w</title>
<path fill="none" stroke="#000000" stroke-width="2" d="M2135,-70.5C2198.88,-70.5 2214.87,-69.5 2279,-69.5"/>
<path fill="none" stroke="#00ff00" stroke-width="2" d="M2135,-72.5C2199,-72.5 2215,-71.5 2279,-71.5"/>
<path fill="none" stroke="#000000" stroke-width="2" d="M2135,-74.5C2199.13,-74.5 2215.12,-73.5 2279,-73.5"/>
</g>
<!-- MOTOR&#45;&#45;W_ENC -->
<g id="edge23" class="edge">
<title>MOTOR:e&#45;&#45;W_ENC:w</title>
<path fill="none" stroke="#000000" stroke-width="2" d="M2135,-47.5C2198.64,-47.53 2214.62,-44.53 2279,-44.5"/>
<path fill="none" stroke="#ffff00" stroke-width="2" d="M2135,-49.5C2199.01,-49.5 2214.99,-46.5 2279,-46.5"/>
<path fill="none" stroke="#000000" stroke-width="2" d="M2135,-51.5C2199.38,-51.47 2215.36,-48.47 2279,-48.5"/>
</g>
<!-- W_PWR&#45;&#45;L298N -->
<g id="edge2" class="edge">
<title>W_PWR:e&#45;&#45;L298N:w</title>
<path fill="none" stroke="#000000" stroke-width="2" d="M644,-395.5C707.88,-395.5 723.87,-394.5 788,-394.5"/>
<path fill="none" stroke="#ff0000" stroke-width="2" d="M644,-397.5C708,-397.5 724,-396.5 788,-396.5"/>
<path fill="none" stroke="#000000" stroke-width="2" d="M644,-399.5C708.13,-399.5 724.12,-398.5 788,-398.5"/>
</g>
<!-- W_PWR&#45;&#45;L298N -->
<g id="edge4" class="edge">
<title>W_PWR:e&#45;&#45;L298N:w</title>
<path fill="none" stroke="#000000" stroke-width="2" d="M644,-370.5C708.13,-370.5 724.12,-371.5 788,-371.5"/>
<path fill="none" stroke="#000000" stroke-width="2" d="M644,-372.5C708,-372.5 724,-373.5 788,-373.5"/>
<path fill="none" stroke="#000000" stroke-width="2" d="M644,-374.5C707.88,-374.5 723.87,-375.5 788,-375.5"/>
</g>
<!-- W_GND&#45;&#45;ESP32 -->
<g id="edge6" class="edge">
<title>W_GND:e&#45;&#45;ESP32:w</title>
<path fill="none" stroke="#000000" stroke-width="2" d="M2056.5,-447.5C2136.67,-447.74 2649.93,-170.74 2732,-170.5"/>
<path fill="none" stroke="#000000" stroke-width="2" d="M2056.5,-449.5C2137.62,-449.5 2650.88,-172.5 2732,-172.5"/>
<path fill="none" stroke="#000000" stroke-width="2" d="M2056.5,-451.5C2138.57,-451.26 2651.83,-174.26 2732,-174.5"/>
</g>
<!-- W_CTRL&#45;&#45;L298N -->
<g id="edge8" class="edge">
<title>W_CTRL:e&#45;&#45;L298N:w</title>
<path fill="none" stroke="#000000" stroke-width="2" d="M3363.5,-232.5C3442.87,-234.14 3493.45,42.38 3091.9,-164.78 2996.22,-211.07 3043.84,-306.76 2947.96,-361.26 2745.31,-470.24 2661.33,-391.96 2434.5,-392.5 1929.5,-392.5 1929.5,-392.5 1929.5,-392.5 1658.21,-392.36 1586.97,-363.97 1321.34,-409.47 1256.58,-419.62 1245.2,-444 1177.31,-455.48 1007.8,-481.5 912.6,-576.42 787.09,-454.92 754.01,-421.68 739.76,-350.89 787.5,-348.5"/>
<path fill="none" stroke="#ff8000" stroke-width="2" d="M3363.5,-234.5C3444.84,-234.5 3495.42,42.02 3091,-163 2994.43,-211.96 3042.05,-307.65 2947,-359.5 2746.67,-468.78 2662.69,-390.5 2434.5,-390.5 1929.5,-390.5 1929.5,-390.5 1929.5,-390.5 1658.95,-390.5 1587.72,-362.11 1321,-407.5 1254.77,-418.77 1243.38,-443.15 1177,-453.5 1006.39,-480.09 911.18,-575 788.5,-453.5 755.97,-421.29 741.72,-350.5 787.5,-350.5"/>
<path fill="none" stroke="#000000" stroke-width="2" d="M3363.5,-236.5C3446.81,-234.86 3497.38,41.66 3090.1,-161.22 2992.64,-212.85 3040.26,-308.54 2946.04,-357.74 2748.04,-467.32 2664.06,-389.04 2434.5,-388.5 1929.5,-388.5 1929.5,-388.5 1929.5,-388.5 1659.69,-388.64 1588.46,-360.25 1320.66,-405.53 1252.95,-417.93 1241.57,-442.31 1176.69,-451.52 1004.98,-478.67 909.77,-573.58 789.91,-452.08 757.93,-420.89 743.68,-350.11 787.5,-352.5"/>
</g>
<!-- W_CTRL&#45;&#45;L298N -->
<g id="edge10" class="edge">
<title>W_CTRL:e&#45;&#45;L298N:w</title>
<path fill="none" stroke="#000000" stroke-width="2" d="M3363.5,-207.5C3408.25,-209.52 3406.86,-29.75 3091.77,-164.84 3008.71,-197.7 3032,-271.07 2947.83,-311.32 2843.05,-358.77 2548.49,-342.5 2434.5,-342.5 1929.5,-342.5 1929.5,-342.5 1929.5,-342.5 1659.74,-342.21 1581.16,-389.85 1320.42,-311.41 1247.67,-287.89 1246.86,-243.36 1176.47,-225.43 1009.34,-179.17 909.97,-103.59 789.91,-224.92 757.93,-256.11 743.68,-326.89 787.5,-324.5"/>
<path fill="none" stroke="#895956" stroke-width="2" d="M3363.5,-209.5C3410.25,-209.5 3408.86,-29.73 3091,-163 3006.8,-198.3 3030.09,-271.67 2947,-309.5 2843.16,-356.77 2548.6,-340.5 2434.5,-340.5 1929.5,-340.5 1929.5,-340.5 1929.5,-340.5 1658.7,-340.5 1580.13,-388.14 1321,-309.5 1249.67,-287.85 1248.86,-243.33 1177,-223.5 1010.55,-177.58 911.18,-102 788.5,-223.5 755.97,-255.71 741.72,-326.5 787.5,-326.5"/>
<path fill="none" stroke="#000000" stroke-width="2" d="M3363.5,-211.5C3412.25,-209.48 3410.86,-29.72 3090.23,-161.16 3004.9,-198.91 3028.19,-272.28 2946.17,-307.68 2843.27,-354.78 2548.71,-338.5 2434.5,-338.5 1929.5,-338.5 1929.5,-338.5 1929.5,-338.5 1657.67,-338.79 1579.09,-386.43 1321.58,-307.59 1251.67,-287.82 1250.86,-243.29 1177.53,-221.57 1011.76,-175.99 912.4,-100.41 787.09,-222.08 754.01,-255.32 739.76,-326.11 787.5,-328.5"/>
</g>
<!-- W_CTRL&#45;&#45;L298N -->
<g id="edge12" class="edge">
<title>W_CTRL:e&#45;&#45;L298N:w</title>
<path fill="none" stroke="#000000" stroke-width="2" d="M3363.5,-182.5C3371.12,-184.98 3367.48,-170.08 3361.12,-164.45 3276.33,-81.34 3207.06,-127.93 3091.61,-164.91 3018.16,-186.72 3023.22,-239.58 2947.66,-267.39 2730.36,-341.81 2661.38,-292.12 2434.5,-292.5 1929.5,-292.5 1929.5,-292.5 1929.5,-292.5 1659.34,-292.43 1588.62,-311.2 1320.68,-267.47 1253.47,-255.7 1241.25,-233.91 1176.72,-225.48 1004.64,-200.48 909.92,-103.57 789.91,-224.92 765.16,-248.89 753.9,-303.9 787.5,-301.5"/>
<path fill="none" stroke="#8000ff" stroke-width="2" d="M3363.5,-184.5C3373.07,-184.5 3369.42,-169.61 3362.5,-163 3275.22,-79.68 3205.94,-126.27 3091,-163 3016.17,-186.91 3021.22,-239.77 2947,-265.5 2731.53,-340.19 2662.55,-290.5 2434.5,-290.5 1929.5,-290.5 1929.5,-290.5 1929.5,-290.5 1658.83,-290.5 1588.11,-309.27 1321,-265.5 1255.21,-254.72 1243,-232.93 1177,-223.5 1006.07,-199.08 911.35,-102.17 788.5,-223.5 763.2,-248.49 751.94,-303.5 787.5,-303.5"/>
<path fill="none" stroke="#000000" stroke-width="2" d="M3363.5,-186.5C3375.01,-184.02 3371.36,-169.13 3363.88,-161.55 3274.1,-78.02 3204.82,-124.61 3090.39,-161.09 3014.18,-187.1 3019.23,-239.96 2946.34,-263.61 2732.7,-338.57 2663.72,-288.88 2434.5,-288.5 1929.5,-288.5 1929.5,-288.5 1929.5,-288.5 1658.31,-288.57 1587.6,-307.34 1321.32,-263.53 1256.96,-253.74 1244.74,-231.95 1177.28,-221.52 1007.5,-197.68 912.78,-100.77 787.09,-222.08 761.24,-248.08 749.98,-303.1 787.5,-305.5"/>
</g>
<!-- W_MOTOR&#45;&#45;MOTOR -->
<g id="edge14" class="edge">
<title>W_MOTOR:e&#45;&#45;MOTOR:w</title>
<path fill="none" stroke="#000000" stroke-width="2" d="M1582,-164.5C1645.88,-164.5 1661.87,-163.5 1726,-163.5"/>
<path fill="none" stroke="#ff0000" stroke-width="2" d="M1582,-166.5C1646,-166.5 1662,-165.5 1726,-165.5"/>
<path fill="none" stroke="#000000" stroke-width="2" d="M1582,-168.5C1646.13,-168.5 1662.12,-167.5 1726,-167.5"/>
</g>
<!-- W_MOTOR&#45;&#45;MOTOR -->
<g id="edge16" class="edge">
<title>W_MOTOR:e&#45;&#45;MOTOR:w</title>
<path fill="none" stroke="#000000" stroke-width="2" d="M1582,-139.5C1646.13,-139.5 1662.12,-140.5 1726,-140.5"/>
<path fill="none" stroke="#ffffff" stroke-width="2" d="M1582,-141.5C1646,-141.5 1662,-142.5 1726,-142.5"/>
<path fill="none" stroke="#000000" stroke-width="2" d="M1582,-143.5C1645.88,-143.5 1661.87,-144.5 1726,-144.5"/>
</g>
<!-- W_ENC&#45;&#45;ESP32 -->
<g id="edge18" class="edge">
<title>W_ENC:e&#45;&#45;ESP32:w</title>
<path fill="none" stroke="#000000" stroke-width="2" d="M2588,-119.5C2661.96,-121.5 2662.04,-195.5 2732,-193.5"/>
<path fill="none" stroke="#0066ff" stroke-width="2" d="M2588,-121.5C2659.96,-121.5 2660.04,-195.5 2732,-195.5"/>
<path fill="none" stroke="#000000" stroke-width="2" d="M2588,-123.5C2657.96,-121.5 2658.04,-195.5 2732,-197.5"/>
</g>
<!-- W_ENC&#45;&#45;ESP32 -->
<g id="edge20" class="edge">
<title>W_ENC:e&#45;&#45;ESP32:w</title>
<path fill="none" stroke="#000000" stroke-width="2" d="M2588,-94.5C2658.18,-96.22 2665.78,-149.22 2732,-147.5"/>
<path fill="none" stroke="#000000" stroke-width="2" d="M2588,-96.5C2656.2,-96.5 2663.8,-149.5 2732,-149.5"/>
<path fill="none" stroke="#000000" stroke-width="2" d="M2588,-98.5C2654.22,-96.78 2661.82,-149.78 2732,-151.5"/>
</g>
<!-- W_ENC&#45;&#45;ESP32 -->
<g id="edge22" class="edge">
<title>W_ENC:e&#45;&#45;ESP32:w</title>
<path fill="none" stroke="#000000" stroke-width="2" d="M2588,-69.5C2650.95,-70.07 2666.25,-55.07 2732,-54.5"/>
<path fill="none" stroke="#00ff00" stroke-width="2" d="M2588,-71.5C2652.35,-71.5 2667.65,-56.5 2732,-56.5"/>
<path fill="none" stroke="#000000" stroke-width="2" d="M2588,-73.5C2653.75,-72.93 2669.05,-57.93 2732,-58.5"/>
</g>
<!-- W_ENC&#45;&#45;ESP32 -->
<g id="edge24" class="edge">
<title>W_ENC:e&#45;&#45;ESP32:w</title>
<path fill="none" stroke="#000000" stroke-width="2" d="M2588,-44.5C2650.97,-44.97 2666.45,-31.97 2732,-31.5"/>
<path fill="none" stroke="#ffff00" stroke-width="2" d="M2588,-46.5C2652.26,-46.5 2667.74,-33.5 2732,-33.5"/>
<path fill="none" stroke="#000000" stroke-width="2" d="M2588,-48.5C2653.55,-48.03 2669.03,-35.03 2732,-35.5"/>
</g>
</g>
</svg>
